<?xml version="1.0" encoding="utf-8"?>
<!-- Generator: Adobe Illustrator 17.0.0, SVG Export Plug-In . SVG Version: 6.00 Build 0)  -->
<!DOCTYPE svg PUBLIC "-//W3C//DTD SVG 1.1//EN" "http://www.w3.org/Graphics/SVG/1.1/DTD/svg11.dtd">
<svg version="1.1" id="Layer_1" xmlns="http://www.w3.org/2000/svg" xmlns:xlink="http://www.w3.org/1999/xlink" x="0px" y="0px"
	 width="472px" height="132px" viewBox="0 0 472 132" enable-background="new 0 0 472 132" xml:space="preserve">
<g>
	<g>
		<polygon fill="none" stroke="#8B8B8B" stroke-miterlimit="10" points="430.513,122.167 471.436,12.167 42.56,12.167 0,122.167 		
			"/>
		<g>
			<path fill="#C3002F" d="M34.555,5.182l0.668,1.202c0,0-3.741,3.875-2.806,8.284c0,0,1.737,0.134,2.539,1.069
				c0,0-2.672,7.082,0.133,10.956c0,0-10.822,5.077-10.822-8.685C24.267,18.008,25.068,8.389,34.555,5.182z"/>
			<path fill="#C3002F" d="M46.045,7.186l0.668,1.203c0,0-3.741,3.874-2.805,8.284c0,0,1.737,0.134,2.538,1.069
				c0,0-2.672,7.082,0.134,10.956c0,0-10.822,5.077-10.822-8.685C35.757,20.013,36.559,10.393,46.045,7.186z"/>
			<circle fill="#C3002F" cx="42.905" cy="23.153" r="6.614"/>
		</g>
		<g>
			<path fill="#C3002F" d="M446.498,91.96l-0.668,1.202c0,0,3.741,3.875,2.806,8.284c0,0-1.737,0.134-2.539,1.069
				c0,0,2.672,7.082-0.133,10.956c0,0,10.822,5.077,10.822-8.685C456.786,104.786,455.985,95.167,446.498,91.96z"/>
			<path fill="#C3002F" d="M435.008,93.964l-0.668,1.203c0,0,3.741,3.874,2.805,8.284c0,0-1.737,0.134-2.538,1.069
				c0,0,2.672,7.082-0.134,10.956c0,0,10.822,5.077,10.822-8.685C445.296,106.79,444.494,97.171,435.008,93.964z"/>
			<circle fill="#C3002F" cx="438.148" cy="109.93" r="6.614"/>
		</g>
	</g>
</g>
</svg>
