<?xml version="1.0" encoding="utf-8"?>
<!-- Generator: Adobe Illustrator 17.0.0, SVG Export Plug-In . SVG Version: 6.00 Build 0)  -->
<!DOCTYPE svg PUBLIC "-//W3C//DTD SVG 1.1//EN" "http://www.w3.org/Graphics/SVG/1.1/DTD/svg11.dtd">
<svg version="1.1" id="Layer_1" xmlns="http://www.w3.org/2000/svg" xmlns:xlink="http://www.w3.org/1999/xlink" x="0px" y="0px"
	 width="472px" height="77px" viewBox="0 0 472 77" enable-background="new 0 0 472 77" xml:space="preserve">
<g>
	<g>
		<polygon fill="#FFFFFF" stroke="#8B8B8B" stroke-miterlimit="10" points="430.513,76.5 471.436,6.5 42.56,6.5 0,76.5 		"/>
		<g>
			<path fill="#C3002F" d="M34.555-0.484l0.668,1.202c0,0-3.741,3.875-2.806,8.284c0,0,1.737,0.134,2.539,1.069
				c0,0-2.672,7.082,0.133,10.956c0,0-10.822,5.077-10.822-8.685C24.267,12.342,25.068,2.723,34.555-0.484z"/>
			<path fill="#C3002F" d="M46.045,1.52l0.668,1.203c0,0-3.741,3.874-2.805,8.284c0,0,1.737,0.134,2.538,1.069
				c0,0-2.672,7.082,0.134,10.956c0,0-10.822,5.077-10.822-8.685C35.757,14.346,36.559,4.726,46.045,1.52z"/>
			<circle fill="#C3002F" cx="42.905" cy="17.486" r="6.614"/>
		</g>
		<g>
			<path fill="#C3002F" d="M453.498,31.293l-0.668,1.202c0,0,3.741,3.875,2.806,8.284c0,0-1.737,0.134-2.539,1.069
				c0,0,2.672,7.082-0.133,10.956c0,0,10.822,5.077,10.822-8.685C463.786,44.12,462.985,34.501,453.498,31.293z"/>
			<path fill="#C3002F" d="M442.008,33.298l-0.668,1.203c0,0,3.741,3.874,2.805,8.284c0,0-1.737,0.134-2.538,1.069
				c0,0,2.672,7.082-0.134,10.956c0,0,10.822,5.077,10.822-8.685C452.296,46.124,451.494,36.504,442.008,33.298z"/>
			<circle fill="#C3002F" cx="445.148" cy="49.264" r="6.614"/>
		</g>
	</g>
</g>
</svg>
